<?xml version="1.0" encoding="UTF-8"?>
<svg xmlns="http://www.w3.org/2000/svg" xmlns:xlink="http://www.w3.org/1999/xlink" width="64px" height="64px" viewBox="0 0 64 64" version="1.1">
<g id="surface1">
<path style=" stroke:none;fill-rule:nonzero;fill:rgb(0.784314%,13.333334%,8.627451%);fill-opacity:1;" d="M 0 0 C 21.121094 0 42.238281 0 64 0 C 64 21.121094 64 42.238281 64 64 C 42.878906 64 21.761719 64 0 64 C 0 42.878906 0 21.761719 0 0 Z M 0 0 "/>
<path style=" stroke:none;fill-rule:nonzero;fill:rgb(98.823529%,96.862745%,90.588236%);fill-opacity:1;" d="M 32.5 13.25 C 32.554688 13.265625 32.613281 13.28125 32.671875 13.296875 C 32.863281 13.347656 33.058594 13.398438 33.25 13.453125 C 33.355469 13.480469 33.355469 13.480469 33.46875 13.511719 C 33.695312 13.574219 33.925781 13.636719 34.152344 13.699219 C 34.449219 13.78125 34.75 13.863281 35.046875 13.945312 C 35.121094 13.964844 35.195312 13.984375 35.269531 14.003906 C 35.839844 14.160156 36.410156 14.316406 36.980469 14.46875 C 37.625 14.640625 38.269531 14.816406 38.914062 14.992188 C 38.972656 15.007812 39.03125 15.023438 39.089844 15.039062 C 39.898438 15.261719 40.703125 15.484375 41.507812 15.710938 C 42.03125 15.859375 42.554688 16.003906 43.082031 16.144531 C 43.777344 16.332031 44.472656 16.523438 45.164062 16.714844 C 45.285156 16.75 45.40625 16.78125 45.527344 16.816406 C 45.699219 16.863281 45.867188 16.910156 46.039062 16.957031 C 46.089844 16.972656 46.140625 16.984375 46.191406 17 C 46.242188 17.015625 46.289062 17.027344 46.339844 17.042969 C 46.382812 17.054688 46.421875 17.066406 46.464844 17.078125 C 46.617188 17.121094 46.765625 17.171875 46.917969 17.222656 C 46.96875 17.238281 47.019531 17.253906 47.070312 17.273438 C 47.109375 17.285156 47.148438 17.300781 47.1875 17.3125 C 47.191406 19.128906 47.191406 20.945312 47.195312 22.761719 C 47.195312 22.976562 47.195312 23.191406 47.195312 23.40625 C 47.195312 23.46875 47.195312 23.46875 47.195312 23.535156 C 47.195312 24.226562 47.195312 24.914062 47.195312 25.605469 C 47.199219 26.316406 47.199219 27.027344 47.199219 27.738281 C 47.199219 28.132812 47.199219 28.53125 47.199219 28.929688 C 47.203125 29.308594 47.203125 29.683594 47.203125 30.058594 C 47.203125 30.195312 47.203125 30.332031 47.203125 30.46875 C 47.207031 31.605469 47.15625 32.738281 46.949219 33.855469 C 46.933594 33.945312 46.933594 33.945312 46.917969 34.035156 C 46.808594 34.617188 46.667969 35.183594 46.5 35.75 C 46.484375 35.808594 46.464844 35.863281 46.449219 35.921875 C 45.597656 38.71875 44.039062 41.214844 42.066406 43.359375 C 41.984375 43.449219 41.898438 43.542969 41.816406 43.636719 C 41.496094 44.003906 41.152344 44.351562 40.808594 44.699219 C 40.761719 44.746094 40.714844 44.792969 40.664062 44.84375 C 40.371094 45.136719 40.066406 45.417969 39.75 45.6875 C 39.675781 45.753906 39.601562 45.820312 39.523438 45.886719 C 39.066406 46.289062 38.601562 46.671875 38.113281 47.039062 C 38 47.125 37.890625 47.207031 37.777344 47.292969 C 37.175781 47.753906 36.554688 48.1875 35.921875 48.605469 C 35.847656 48.652344 35.847656 48.652344 35.777344 48.703125 C 34.929688 49.265625 34.074219 49.808594 33.199219 50.320312 C 33.054688 50.40625 32.910156 50.492188 32.765625 50.578125 C 32.6875 50.625 32.609375 50.671875 32.53125 50.71875 C 32.460938 50.761719 32.390625 50.804688 32.320312 50.851562 C 32.101562 50.949219 32.03125 50.957031 31.8125 50.875 C 31.652344 50.796875 31.652344 50.796875 31.484375 50.699219 C 31.417969 50.660156 31.355469 50.625 31.289062 50.585938 C 31.222656 50.546875 31.152344 50.507812 31.082031 50.464844 C 31.007812 50.421875 30.9375 50.378906 30.863281 50.335938 C 28.871094 49.171875 26.890625 47.933594 25.125 46.4375 C 25.058594 46.382812 24.996094 46.328125 24.929688 46.273438 C 24.523438 45.933594 24.128906 45.585938 23.742188 45.226562 C 23.574219 45.074219 23.402344 44.921875 23.234375 44.769531 C 22.835938 44.414062 22.464844 44.039062 22.117188 43.636719 C 21.984375 43.480469 21.84375 43.332031 21.703125 43.179688 C 21.339844 42.78125 21.011719 42.363281 20.6875 41.9375 C 20.644531 41.882812 20.644531 41.882812 20.601562 41.828125 C 18.546875 39.132812 17.222656 36.003906 16.875 32.625 C 16.871094 32.574219 16.863281 32.519531 16.859375 32.464844 C 16.796875 31.773438 16.804688 31.082031 16.804688 30.390625 C 16.804688 30.246094 16.804688 30.101562 16.804688 29.960938 C 16.804688 29.574219 16.804688 29.1875 16.804688 28.800781 C 16.804688 28.398438 16.804688 27.992188 16.808594 27.589844 C 16.808594 26.910156 16.808594 26.234375 16.808594 25.554688 C 16.808594 24.859375 16.808594 24.160156 16.808594 23.464844 C 16.808594 23.417969 16.808594 23.375 16.808594 23.332031 C 16.808594 23.117188 16.808594 22.898438 16.808594 22.683594 C 16.808594 20.894531 16.8125 19.101562 16.8125 17.3125 C 17.082031 17.230469 17.351562 17.152344 17.625 17.070312 C 17.699219 17.046875 17.777344 17.027344 17.855469 17.003906 C 18.378906 16.847656 18.90625 16.699219 19.4375 16.5625 C 19.738281 16.480469 20.042969 16.398438 20.34375 16.316406 C 20.40625 16.300781 20.40625 16.300781 20.472656 16.28125 C 21.421875 16.023438 22.375 15.757812 23.324219 15.496094 C 24.09375 15.28125 24.859375 15.070312 25.628906 14.859375 C 25.675781 14.847656 25.726562 14.832031 25.773438 14.820312 C 26.488281 14.625 27.203125 14.425781 27.914062 14.230469 C 28.003906 14.207031 28.089844 14.183594 28.175781 14.160156 C 28.5625 14.054688 28.953125 13.949219 29.339844 13.839844 C 29.421875 13.820312 29.503906 13.796875 29.585938 13.773438 C 29.78125 13.71875 29.976562 13.667969 30.175781 13.613281 C 30.503906 13.523438 30.832031 13.433594 31.160156 13.332031 C 31.210938 13.316406 31.261719 13.300781 31.3125 13.285156 C 31.402344 13.257812 31.492188 13.230469 31.582031 13.199219 C 31.925781 13.097656 32.167969 13.15625 32.5 13.25 Z M 32.5 13.25 "/>
<path style=" stroke:none;fill-rule:nonzero;fill:rgb(1.176471%,13.333334%,8.627451%);fill-opacity:1;" d="M 32.339844 19.101562 C 32.386719 19.101562 32.433594 19.101562 32.484375 19.101562 C 34.003906 19.113281 35.753906 19.40625 37.011719 20.335938 C 37.097656 20.386719 37.097656 20.386719 37.1875 20.4375 C 37.429688 20.371094 37.589844 20.246094 37.78125 20.085938 C 38.160156 19.816406 38.492188 19.824219 38.945312 19.847656 C 39.015625 19.851562 39.089844 19.851562 39.164062 19.855469 C 39.335938 19.859375 39.511719 19.867188 39.6875 19.875 C 39.738281 22.105469 39.757812 24.332031 39.75 26.5625 C 39.007812 26.5625 38.265625 26.5625 37.5 26.5625 C 37.449219 26.222656 37.449219 26.222656 37.398438 25.878906 C 37.160156 24.394531 36.589844 22.921875 35.355469 21.984375 C 34.742188 21.578125 34.054688 21.292969 33.3125 21.25 C 33.253906 21.246094 33.195312 21.242188 33.132812 21.238281 C 32.058594 21.199219 31.015625 21.609375 30.203125 22.308594 C 29.113281 23.320312 28.558594 24.761719 28.363281 26.214844 C 28.347656 26.316406 28.347656 26.316406 28.332031 26.421875 C 28.167969 27.601562 28.175781 28.804688 28.171875 29.992188 C 28.171875 30.214844 28.171875 30.433594 28.167969 30.65625 C 28.15625 32.816406 28.457031 35.15625 29.875 36.875 C 29.921875 36.9375 29.96875 37 30.015625 37.066406 C 30.617188 37.769531 31.597656 38.195312 32.5 38.3125 C 33.75 38.40625 34.960938 38.164062 35.953125 37.351562 C 35.988281 37.316406 36.023438 37.285156 36.0625 37.25 C 36.105469 37.210938 36.152344 37.171875 36.195312 37.132812 C 37.160156 36.234375 37.527344 35.042969 37.875 33.8125 C 38.515625 33.832031 39.152344 33.855469 39.8125 33.875 C 39.8125 35.605469 39.300781 37.277344 38.1875 38.625 C 38.152344 38.671875 38.113281 38.714844 38.078125 38.761719 C 36.921875 40.144531 35.082031 40.8125 33.335938 40.988281 C 30.789062 41.175781 28.289062 40.53125 26.332031 38.855469 C 26.175781 38.71875 26.023438 38.578125 25.875 38.4375 C 25.820312 38.386719 25.820312 38.386719 25.761719 38.335938 C 23.925781 36.628906 23.164062 33.800781 23.0625 31.375 C 23.050781 30.980469 23.050781 30.582031 23.050781 30.1875 C 23.050781 30.132812 23.050781 30.082031 23.050781 30.027344 C 23.058594 26.808594 23.820312 23.894531 26.117188 21.542969 C 27.765625 19.910156 30.042969 19.078125 32.339844 19.101562 Z M 32.339844 19.101562 "/>
<path style=" stroke:none;fill-rule:nonzero;fill:rgb(3.529412%,10.196079%,6.27451%);fill-opacity:1;" d="M 38.125 19.875 C 38.28125 19.855469 38.28125 19.855469 38.480469 19.855469 C 38.550781 19.855469 38.621094 19.859375 38.691406 19.859375 C 38.765625 19.859375 38.839844 19.863281 38.914062 19.863281 C 39.023438 19.863281 39.023438 19.863281 39.136719 19.867188 C 39.320312 19.867188 39.503906 19.871094 39.6875 19.875 C 39.667969 20.121094 39.644531 20.371094 39.625 20.625 C 39.605469 20.625 39.582031 20.625 39.5625 20.625 C 39.5625 20.417969 39.5625 20.210938 39.5625 20 C 38.789062 20.03125 38.789062 20.03125 38 20.0625 C 38.042969 20 38.082031 19.9375 38.125 19.875 Z M 38.125 19.875 "/>
<path style=" stroke:none;fill-rule:nonzero;fill:rgb(98.823529%,98.431373%,96.078432%);fill-opacity:1;" d="M 28.1875 29.1875 C 28.207031 29.1875 28.230469 29.1875 28.25 29.1875 C 28.332031 30.113281 28.332031 30.113281 28.25 30.5 C 28.230469 30.5 28.207031 30.5 28.1875 30.5 C 28.121094 30.234375 28.117188 29.976562 28.117188 29.703125 C 28.117188 29.660156 28.117188 29.617188 28.117188 29.574219 C 28.117188 29.257812 28.117188 29.257812 28.1875 29.1875 Z M 28.1875 29.1875 "/>
<path style=" stroke:none;fill-rule:nonzero;fill:rgb(91.764706%,92.941177%,89.803922%);fill-opacity:1;" d="M 30.4375 22.0625 C 30.480469 22.082031 30.519531 22.105469 30.5625 22.125 C 30.355469 22.394531 30.167969 22.574219 29.875 22.75 C 29.832031 22.730469 29.792969 22.707031 29.75 22.6875 C 29.828125 22.605469 29.910156 22.527344 29.988281 22.445312 C 30.03125 22.398438 30.078125 22.355469 30.121094 22.308594 C 30.25 22.1875 30.25 22.1875 30.4375 22.0625 Z M 30.4375 22.0625 "/>
<path style=" stroke:none;fill-rule:nonzero;fill:rgb(9.411765%,16.078432%,12.54902%);fill-opacity:1;" d="M 30.5 40.75 C 30.808594 40.75 31.117188 40.75 31.4375 40.75 C 31.25 40.9375 31.25 40.9375 31.097656 40.945312 C 31.042969 40.941406 30.988281 40.933594 30.933594 40.925781 C 30.878906 40.917969 30.824219 40.914062 30.765625 40.90625 C 30.625 40.875 30.625 40.875 30.5 40.75 Z M 30.5 40.75 "/>
<path style=" stroke:none;fill-rule:nonzero;fill:rgb(3.137255%,9.019608%,6.27451%);fill-opacity:1;" d="M 24.1875 24.3125 C 24.230469 24.3125 24.269531 24.3125 24.3125 24.3125 C 24.332031 24.375 24.355469 24.4375 24.375 24.5 C 24.3125 24.53125 24.3125 24.53125 24.25 24.5625 C 24.230469 24.625 24.207031 24.6875 24.1875 24.75 C 24.144531 24.75 24.105469 24.75 24.0625 24.75 C 24.019531 24.851562 23.980469 24.957031 23.9375 25.0625 C 23.917969 25.019531 23.894531 24.980469 23.875 24.9375 C 23.9375 24.789062 23.9375 24.789062 24.027344 24.617188 C 24.070312 24.53125 24.070312 24.53125 24.117188 24.445312 C 24.140625 24.402344 24.164062 24.359375 24.1875 24.3125 Z M 24.1875 24.3125 "/>
<path style=" stroke:none;fill-rule:nonzero;fill:rgb(7.058824%,14.509805%,10.588235%);fill-opacity:1;" d="M 46.9375 33.8125 C 46.980469 33.832031 47.019531 33.855469 47.0625 33.875 C 47.015625 34.359375 47.015625 34.359375 46.875 34.5 C 46.773438 34.25 46.855469 34.058594 46.9375 33.8125 Z M 46.9375 33.8125 "/>
<path style=" stroke:none;fill-rule:nonzero;fill:rgb(9.803922%,19.215687%,15.686275%);fill-opacity:1;" d="M 31.25 19.125 C 31.496094 19.144531 31.746094 19.167969 32 19.1875 C 31.792969 19.324219 31.726562 19.328125 31.488281 19.320312 C 31.433594 19.320312 31.375 19.316406 31.316406 19.316406 C 31.273438 19.316406 31.230469 19.3125 31.1875 19.3125 C 31.207031 19.25 31.230469 19.1875 31.25 19.125 Z M 31.25 19.125 "/>
<path style=" stroke:none;fill-rule:nonzero;fill:rgb(85.882354%,87.058824%,84.313726%);fill-opacity:1;" d="M 23.0625 44.5 C 23.273438 44.585938 23.375 44.6875 23.5 44.875 C 23.3125 44.875 23.3125 44.875 23.175781 44.757812 C 23.0625 44.625 23.0625 44.625 23.0625 44.5 Z M 23.0625 44.5 "/>
<path style=" stroke:none;fill-rule:nonzero;fill:rgb(94.509804%,94.901961%,90.196079%);fill-opacity:1;" d="M 29.375 23.25 C 29.417969 23.332031 29.457031 23.414062 29.5 23.5 C 29.417969 23.5625 29.335938 23.625 29.25 23.6875 C 29.230469 23.625 29.207031 23.5625 29.1875 23.5 C 29.277344 23.363281 29.277344 23.363281 29.375 23.25 Z M 29.375 23.25 "/>
</g>
</svg>
